# xmcd
#
# Track frame offsets:
#        150
#        17791
#        42267
#
# Disc length: 794 seconds
#
# Revision: 0
# Processed by: cddbd v1.5.1PL0 Copyright (c) Steve Scherf et al.
# Submitted via: ExactAudioCopy v0.95a5
#
DISCID=1c031803
DTITLE=T.M. Revolution x Spiderman2 - Web of Night
DYEAR=2004
DGENRE=Rock
TTITLE0=Web of Night
TTITLE1=Tears Macerate Reason [dedicated to Spiderman2]
TTITLE2=Web of Night [English Version]
EXTD=
EXTT0=
EXTT1=
EXTT2=
PLAYORDER=
